# xmcd
#
# Track frame offsets: 
#        150
#        19065
#        39693
#        63740
#        85348
#        107998
#        112353
#        133700
#        155375
#
# Disc length: 2206 seconds
#
# Revision: 0
# Processed by: cddbd v1.5.2PL0 Copyright (c) Steve Scherf et al.
# Submitted via: ExactAudioCopy v0.95b4
#
DISCID=81089c09
DTITLE=Herbert Charles - Something About Her Love
DYEAR=1988
DGENRE=R&B
TTITLE0=Lost In Her Love
TTITLE1=She Gave Me Her Love
TTITLE2=Promises In The Dark
TTITLE3=For Letting Her In
TTITLE4=Something About Her Love
TTITLE5=Prelude to Physical Love
TTITLE6=Physical Love
TTITLE7=Black Butterfly
TTITLE8=Lullaby
EXTD=
EXTT0=
EXTT1=
EXTT2=
EXTT3=
EXTT4=
EXTT5=
EXTT6=
EXTT7=
EXTT8=
PLAYORDER=
